<?xml version="1.0" standalone="no"?>
<!DOCTYPE svg PUBLIC "-//W3C//DTD SVG 20010904//EN"
 "http://www.w3.org/TR/2001/REC-SVG-20010904/DTD/svg10.dtd">
<svg version="1.0" xmlns="http://www.w3.org/2000/svg"
 width="400.000000pt" height="400.000000pt" viewBox="0 0 400.000000 400.000000"
 preserveAspectRatio="xMidYMid meet">
<metadata>
Created by potrace 1.11, written by Peter Selinger 2001-2013
</metadata>
<g transform="translate(0.000000,400.000000) scale(0.100000,-0.100000)"
fill="#000000" stroke="none">
<path d="M0 2060 l0 -1940 2000 0 2000 0 0 1940 0 1940 -2000 0 -2000 0 0
-1940z m1198 1248 l3 -98 84 0 c46 0 90 -3 99 -6 13 -5 16 -24 16 -100 l0 -94
100 0 100 0 0 -60 0 -60 410 0 410 0 0 44 c0 63 17 76 100 76 101 0 100 -1
100 90 0 101 8 110 100 110 101 0 100 -1 100 90 0 103 7 110 103 107 l72 -2 3
-97 3 -97 97 -3 97 -3 3 -97 3 -98 74 0 c40 0 85 -4 99 -10 l26 -10 0 -195 0
-195 23 -1 c12 -1 51 -3 87 -5 35 -2 70 -6 77 -8 10 -4 13 -68 13 -296 l0
-290 -100 0 -100 0 0 -100 0 -100 -195 0 c-178 0 -195 -1 -196 -17 -2 -18 -4
-58 -7 -140 l-2 -43 -1005 0 -1005 0 0 100 0 100 -195 0 -195 0 0 100 0 100
-95 0 -95 0 0 298 0 299 96 -1 c84 0 98 2 110 19 11 14 14 61 14 201 l0 182
28 6 c15 2 53 5 85 5 33 1 63 3 68 7 5 3 9 45 9 94 0 103 -3 100 105 100 48 0
76 4 83 13 7 7 12 50 13 95 2 94 -2 91 104 89 l70 -2 3 -97z m1202 -2013 l0
-105 -400 0 -400 0 0 105 0 105 400 0 400 0 0 -105z"/>
<path d="M800 2705 l0 -95 95 0 95 0 0 -105 0 -105 200 0 200 0 0 105 0 105
200 0 200 0 0 95 0 95 -495 0 -495 0 0 -95z"/>
<path d="M2190 2705 l0 -95 200 0 200 0 0 -105 0 -105 200 0 200 0 0 105 0
105 105 0 105 0 0 95 0 95 -505 0 -505 0 0 -95z"/>
<path d="M3379 108 c-1 -2 -3 -13 -4 -25 -2 -15 2 -20 12 -16 12 5 12 7 1 14
-11 7 -10 11 2 19 10 6 11 10 3 10 -7 0 -14 -1 -14 -2z"/>
<path d="M3522 80 c0 -14 2 -19 5 -12 2 6 2 18 0 25 -3 6 -5 1 -5 -13z"/>
<path d="M3032 76 c7 -8 15 -12 17 -11 5 6 -10 25 -20 25 -5 0 -4 -6 3 -14z"/>
<path d="M3222 60 c0 -19 2 -27 5 -17 2 9 2 25 0 35 -3 9 -5 1 -5 -18z"/>
<path d="M3432 65 c0 -16 2 -22 5 -12 2 9 2 23 0 30 -3 6 -5 -1 -5 -18z"/>
<path d="M3492 60 c0 -19 2 -27 5 -17 2 9 2 25 0 35 -3 9 -5 1 -5 -18z"/>
<path d="M3562 60 c0 -19 2 -27 5 -17 2 9 2 25 0 35 -3 9 -5 1 -5 -18z"/>
<path d="M3655 80 c-3 -6 1 -7 9 -4 18 7 21 14 7 14 -6 0 -13 -4 -16 -10z"/>
<path d="M3711 74 c0 -11 3 -14 6 -6 3 7 2 16 -1 19 -3 4 -6 -2 -5 -13z"/>
<path d="M3865 80 c-3 -6 1 -7 9 -4 18 7 21 14 7 14 -6 0 -13 -4 -16 -10z"/>
<path d="M3922 70 c0 -14 2 -19 5 -12 2 6 2 18 0 25 -3 6 -5 1 -5 -13z"/>
<path d="M2982 50 c0 -14 2 -19 5 -12 2 6 2 18 0 25 -3 6 -5 1 -5 -13z"/>
<path d="M3137 39 c7 -7 15 -10 18 -7 3 3 -2 9 -12 12 -14 6 -15 5 -6 -5z"/>
<path d="M3377 39 c7 -7 15 -10 18 -7 3 3 -2 9 -12 12 -14 6 -15 5 -6 -5z"/>
<path d="M3657 39 c7 -7 15 -10 18 -7 3 3 -2 9 -12 12 -14 6 -15 5 -6 -5z"/>
<path d="M3870 36 c7 -7 13 -7 20 0 6 6 3 10 -10 10 -13 0 -16 -4 -10 -10z"/>
</g>
</svg>
